<?xml version="1.0" encoding="UTF-8" standalone="no"?>
<!-- Created with Inkscape (http://www.inkscape.org/) -->

<svg
   width="210mm"
   height="297mm"
   viewBox="0 0 210 297"
   version="1.1"
   id="svg5"
   inkscape:version="1.2.1 (9c6d41e410, 2022-07-14)"
   sodipodi:docname="sditdevalt.svg"
   xmlns:inkscape="http://www.inkscape.org/namespaces/inkscape"
   xmlns:sodipodi="http://sodipodi.sourceforge.net/DTD/sodipodi-0.dtd"
   xmlns="http://www.w3.org/2000/svg"
   xmlns:svg="http://www.w3.org/2000/svg">
  <sodipodi:namedview
     id="namedview7"
     pagecolor="#ffffff"
     bordercolor="#999999"
     borderopacity="1"
     inkscape:showpageshadow="0"
     inkscape:pageopacity="0"
     inkscape:pagecheckerboard="0"
     inkscape:deskcolor="#d1d1d1"
     inkscape:document-units="mm"
     showgrid="false"
     showguides="true"
     inkscape:zoom="0.74564394"
     inkscape:cx="396.97231"
     inkscape:cy="671.90246"
     inkscape:window-width="1920"
     inkscape:window-height="1017"
     inkscape:window-x="-8"
     inkscape:window-y="-8"
     inkscape:window-maximized="1"
     inkscape:current-layer="layer1" />
  <defs
     id="defs2" />
  <g
     inkscape:label="Layer 1"
     inkscape:groupmode="layer"
     id="layer1">
    <path
       style="fill:#000000;stroke-width:0.264583"
       id="path112"
       d="m 81.923339,11.058083 c -3.365715,2.28817 -6.385317,5.072644 -9.422167,7.76133 -5.402861,4.783445 -8.169709,7.245783 -13.36089,12.403706 -2.25376,2.239319 -4.428482,4.55681 -6.642721,6.835217 -8.953082,9.654021 -16.964507,20.12321 -24.89981,30.614116 -1.884027,2.559969 -3.847539,5.06094 -5.738623,7.615553 -0.416164,0.562186 -0.928536,1.06952 -1.22761,1.701816 -0.154389,0.326408 -0.399767,0.897482 -0.08801,1.079656 2.948214,1.722786 6.198043,2.867765 9.297065,4.301648 9.524958,-3.224747 19.081144,-6.369592 28.454313,-10.022607 8.440428,-3.289501 11.669662,-4.819086 19.964328,-8.472318 8.143354,-3.680325 16.340609,-7.238788 24.634256,-10.567376 0.77292,-0.310208 8.3403,-3.315031 9.79572,-3.753403 0.80208,-0.241588 1.64765,-0.303413 2.47148,-0.455118 -2.43443,-1.182811 -4.63216,-3.111865 -7.30328,-3.548432 -0.86669,-0.14165 -1.00244,1.449448 -1.5996,2.093348 -1.21449,1.309558 -2.52,2.532698 -3.82324,3.753967 -1.85261,1.736087 -3.753889,3.419562 -5.642512,5.116409 -7.089476,6.369579 -8.45926,7.531423 -15.87719,14.042237 -8.40024,7.392961 -16.798531,14.790327 -25.321818,22.041786 -6.38374,5.431173 -12.868846,10.742702 -19.306468,16.109572 -4.442831,3.86609 -9.087496,7.52801 -13.322194,11.63023 -0.733577,0.71062 -2.155384,2.23095 -2.902174,3.022 -1.489739,1.55365 -0.761258,0.80376 -2.183812,2.25125 0,0 7.400412,4.5113 7.400412,4.5113 v 0 c 1.381636,-1.4905 0.674495,-0.7182 2.119638,-2.31854 0.723903,-0.84025 1.982687,-2.31175 2.695877,-3.0916 3.908525,-4.27389 8.15417,-8.22501 12.4441,-12.10931 11.169393,-9.94365 -0.704908,0.60407 11.632631,-10.27483 10.730656,-9.461996 21.358854,-19.040831 32.214375,-28.360689 2.910642,-2.42679 5.803358,-4.875239 8.731922,-7.280367 5.772453,-4.740714 8.374943,-6.715882 13.915333,-11.195929 1.45421,-1.175898 2.95015,-2.304192 4.33993,-3.555571 0.8679,-0.781463 3.07777,-1.566407 2.4213,-2.532314 -1.71523,-2.523762 -5.07019,-3.396871 -7.60529,-5.095308 -0.71988,0.263501 -1.45263,0.494191 -2.15963,0.790503 -3.10949,1.303221 -6.15136,2.76225 -9.222173,4.154146 -8.015255,3.63305 -16.01118,7.308279 -24.002258,10.994171 -7.384079,3.237772 -12.431919,5.570362 -19.982561,8.405434 -9.744162,3.658682 -19.757101,6.622391 -29.955392,8.711107 1.873303,1.504005 3.715806,3.047201 5.619911,4.512013 0.199758,0.153673 -0.559294,-0.326411 -0.496268,-0.570436 0.171818,-0.665215 0.714399,-1.174213 1.094682,-1.746417 1.753028,-2.637745 3.670758,-5.165058 5.441063,-7.790934 7.461137,-10.733402 14.916534,-21.523147 23.820768,-31.137452 2.209972,-2.269413 4.362178,-4.596548 6.629916,-6.80824 7.351893,-7.170181 15.281167,-14.051007 24.363153,-18.944309 0,0 -7.416479,-4.821015 -7.416479,-4.821015 z" />
    <path
       style="fill:#000000;stroke-width:0.264583"
       id="path114"
       d="m 159.72574,17.799057 c -0.37449,0.931262 -0.69568,1.885776 -1.12348,2.793786 -2.83992,6.027767 -6.68747,11.531248 -10.69207,16.829651 -3.53871,4.68198 -8.96094,11.195791 -12.60813,15.644736 -11.52498,13.284189 -22.24561,27.228085 -33.1004,41.056067 -3.747687,4.864698 -7.725679,9.539073 -11.756227,14.169073 -1.54772,1.69141 -2.847978,3.5836 -4.348967,5.31464 -0.847222,0.95851 -1.703649,1.91025 -2.569787,2.85247 -1.249484,1.35752 -2.731042,2.47366 -4.07502,3.73404 -0.871214,0.79533 -0.44328,0.40648 -1.283591,1.16677 0,0 7.495455,4.63477 7.495455,4.63477 v 0 c 0.823987,-0.77535 0.402524,-0.3792 1.264449,-1.18839 1.364268,-1.28656 2.855476,-2.43112 4.191751,-3.74474 0.856851,-0.95666 1.702494,-1.92522 2.507491,-2.92593 1.45624,-1.76351 2.763094,-3.64268 4.214386,-5.41054 3.73583,-4.83399 7.485,-9.65992 10.96454,-14.684663 10.13948,-14.29182 20.44787,-28.497365 32.13869,-41.581646 7.74656,-8.955262 15.64146,-17.883357 22.33456,-27.678515 1.14426,-1.674584 2.94802,-4.721086 4.10183,-6.644209 0,0 -7.65548,-4.33737 -7.65548,-4.33737 z" />
    <path
       style="fill:#000000;stroke-width:0.264583"
       id="path116"
       d="m 166.46115,24.582697 c 2.72915,-2.145436 6.0636,-3.259385 9.36577,-4.175751 4.82951,-1.070919 9.68697,-2.010606 14.55579,-2.88344 2.73574,-0.388657 5.49144,-0.950304 8.26985,-0.868684 1.49307,0.04386 1.79354,0.162269 3.21777,0.444632 0.4572,0.161034 0.92574,0.292907 1.3716,0.483101 0.407,0.17362 1.565,0.825957 1.18114,0.60585 -2.1615,-1.239415 -4.29082,-2.541525 -6.51511,-3.664367 -0.32524,-0.164183 0.57652,0.464268 0.77765,0.768047 0.67134,1.013944 0.6113,1.805097 0.77589,3.010326 -0.0432,2.561578 -0.58439,5.090717 -1.61802,7.441604 -1.66619,3.789573 -4.25831,7.059566 -6.70806,10.352396 -7.28786,9.357725 -15.90648,17.557979 -24.55392,25.634407 -8.38306,7.73454 -17.19735,14.986756 -26.26266,21.903512 -5.73218,4.318736 -11.55949,8.513786 -17.46636,12.590346 -4.10367,2.743872 -8.12983,5.608564 -12.37253,8.136354 -3.31002,2.01958 -6.77757,3.74966 -10.18482,5.59163 -2.706159,1.41858 -5.376519,2.90624 -8.054081,4.37865 -2.3187,1.21714 -4.442219,2.75731 -6.542032,4.31169 -1.418146,1.18791 -3.025,2.10897 -4.528577,3.1756 -0.829587,0.56932 -1.561957,1.25519 -2.293075,1.94175 0,0 7.495876,4.63947 7.495876,4.63947 v 0 c 0.722575,-0.64346 1.455497,-1.27675 2.245262,-1.83782 1.50731,-1.04795 3.030419,-2.07176 4.431237,-3.26411 2.066964,-1.53531 4.211134,-2.96787 6.459802,-4.22547 2.663988,-1.46936 5.307718,-2.97551 7.986688,-4.41712 3.39885,-1.85931 6.84167,-3.64 10.14964,-5.66213 4.19128,-2.58119 8.13482,-5.52815 12.18857,-8.31646 5.8588,-4.089819 11.60884,-8.330791 17.15446,-12.840058 8.92901,-7.081383 17.67937,-14.394254 26.07573,-22.103231 8.67946,-8.134104 17.3105,-16.372567 24.84901,-25.601961 2.61782,-3.274534 5.40162,-6.525083 7.22545,-10.342195 1.14615,-2.398786 1.76047,-5.021635 1.9962,-7.6565 -0.0391,-1.184689 0.0508,-2.292148 -0.40894,-3.413842 -0.15434,-0.376567 -0.33533,-0.794268 -0.67626,-1.016501 -2.72905,-1.778896 -5.59943,-3.332331 -8.44053,-4.926164 -0.38477,-0.215851 -0.80769,-0.358827 -1.22666,-0.497036 -0.46665,-0.153937 -0.94996,-0.251781 -1.42494,-0.377672 -1.50023,-0.201307 -1.70414,-0.282307 -3.26197,-0.261825 -2.77392,0.03647 -5.51138,0.603666 -8.2389,1.044115 -4.89753,0.94485 -9.80996,1.823299 -14.68188,2.892362 -3.44754,1.00309 -6.84137,2.258668 -9.81022,4.326669 0,0 7.49616,4.679826 7.49616,4.679826 z" />
    <path
       style="fill:#000000;stroke-width:0.264583"
       id="path118"
       d="m 90.328594,126.46441 c -0.8707,3.15031 -2.14442,6.18188 -3.40963,9.18986 -0.56234,1.33695 -1.11158,2.68017 -1.71896,3.99727 -0.727186,1.57692 -1.522407,3.12156 -2.283611,4.68233 -4.773152,9.18525 -10.87683,17.55524 -16.977955,25.88196 0,0 7.043309,4.14692 7.043309,4.14692 v 0 c 5.716553,-8.62514 11.612906,-17.14887 16.728767,-26.15214 0.8247,-1.53943 1.68383,-3.06091 2.47412,-4.61829 0.6557,-1.29212 1.24572,-2.61654 1.862558,-3.92764 1.3904,-2.95531 2.7984,-5.90319 4.05884,-8.91689 0,0 -7.777438,-4.28338 -7.777438,-4.28338 z" />
    <path
       style="fill:#000000;stroke-width:0.264583"
       id="path120"
       d="m 125.1636,128.5408 c -0.0586,0.58409 -0.0887,1.17176 -0.17591,1.75228 -0.52411,3.49022 -1.52106,6.89405 -2.50779,10.27456 -1.39802,4.78954 -1.3702,4.57173 -2.93011,9.32611 -2.04341,6.15634 -4.27999,12.24761 -6.51438,18.33684 0,0 7.27286,4.01578 7.27286,4.01578 v 0 c 2.00978,-6.19636 4.19098,-12.33614 6.15602,-18.54748 2.30927,-6.97165 4.80131,-13.90854 6.52491,-21.05462 0,0 -7.8256,-4.10347 -7.8256,-4.10347 z" />
    <path
       style="fill:#000000;stroke-width:0.264583"
       id="path122"
       d="m 106.03763,145.04328 c 7.57589,-3.11425 15.31449,-5.81204 23.03478,-8.54134 6.61674,-2.38349 13.19761,-4.88837 19.64267,-7.70829 2.26504,-0.99102 4.63486,-2.12516 6.87724,-3.18205 3.59849,-1.7524 1.85877,-0.92891 5.21512,-2.47898 0,0 -7.01573,-4.6295 -7.01573,-4.6295 v 0 c -3.24602,1.64189 -1.55976,0.78068 -5.05707,2.58698 -2.33525,1.18046 -4.26045,2.17586 -6.65406,3.28692 -6.32296,2.93499 -12.81414,5.50336 -19.39357,7.80169 -0.0155,0.005 -10.09594,3.38496 -10.41979,3.49482 -3.79073,1.28599 -7.55892,2.70328 -11.4103,3.80416 -0.69719,0.19928 -1.409049,0.34312 -2.113569,0.51469 0,0 7.294279,5.0509 7.294279,5.0509 z" />
    <path
       style="fill:#000000;stroke-width:0.264583"
       id="path116-6"
       d="m 95.132233,188.75802 c 2.72915,-2.14544 6.063597,-3.25939 9.365767,-4.17575 4.82951,-1.07092 9.68697,-2.01061 14.55579,-2.88344 2.73574,-0.38866 5.49144,-0.95031 8.26985,-0.86869 1.49307,0.0439 1.79354,0.16227 3.21777,0.44463 0.4572,0.16104 0.92574,0.29291 1.3716,0.4831 0.407,0.17362 1.565,0.82596 1.18114,0.60585 -2.1615,-1.23941 -4.29082,-2.54152 -6.51511,-3.66436 -0.32524,-0.16419 0.57652,0.46427 0.77765,0.76804 0.67134,1.01395 0.6113,1.8051 0.77589,3.01033 -0.0432,2.56158 -0.58439,5.09072 -1.61802,7.4416 -1.66619,3.78958 -4.25831,7.05957 -6.70806,10.3524 -7.28786,9.35773 -15.90648,17.55798 -24.553917,25.63441 -8.38306,7.73454 -17.19735,14.98675 -26.26266,21.90351 -5.73218,4.31874 -11.55949,8.51379 -17.46636,12.59035 -4.10367,2.74387 -8.12983,5.60856 -12.37253,8.13635 -3.31002,2.01958 -6.77757,3.74966 -10.18482,5.59163 -2.70615,1.41858 -5.37651,2.90624 -8.05408,4.37865 -2.3187,1.21714 -4.44222,2.75731 -6.54203,4.31169 -1.41814,1.18791 -3.025,2.10897 -4.5285804,3.1756 -0.82958,0.56932 -1.56195,1.25519 -2.29307,1.94175 0,0 7.4958804,4.63947 7.4958804,4.63947 v 0 c 0.72257,-0.64346 1.45549,-1.27675 2.24526,-1.83782 1.50731,-1.04795 3.03042,-2.07176 4.43123,-3.26411 2.06697,-1.53531 4.21114,-2.96787 6.45981,-4.22547 2.66398,-1.46936 5.30771,-2.97551 7.98668,-4.41712 3.39885,-1.85931 6.84167,-3.64 10.14964,-5.66213 4.19128,-2.58119 8.13482,-5.52815 12.18857,-8.31646 5.8588,-4.08982 11.60884,-8.33079 17.15446,-12.84006 8.92901,-7.08138 17.67937,-14.39425 26.075727,-22.10323 8.67946,-8.1341 17.3105,-16.37257 24.84901,-25.60196 2.61782,-3.27453 5.40162,-6.52508 7.22545,-10.34219 1.14615,-2.39879 1.76047,-5.02164 1.9962,-7.65651 -0.0391,-1.18468 0.0508,-2.29214 -0.40894,-3.41384 -0.15434,-0.37656 -0.33533,-0.79426 -0.67626,-1.0165 -2.72905,-1.77889 -5.59943,-3.33233 -8.44053,-4.92616 -0.38477,-0.21585 -0.80769,-0.35883 -1.22666,-0.49704 -0.46665,-0.15393 -0.94996,-0.25178 -1.42494,-0.37767 -1.50023,-0.20131 -1.70414,-0.28231 -3.26197,-0.26182 -2.77392,0.0365 -5.51138,0.60366 -8.2389,1.04411 -4.89753,0.94485 -9.80996,1.8233 -14.681877,2.89236 -3.44754,1.00309 -6.84137,2.25867 -9.81022,4.32667 0,0 7.49616,4.67983 7.49616,4.67983 z" />
    <path
       style="fill:#000000;stroke-width:0.264583"
       id="path114-5"
       d="m 88.757543,181.86974 c -0.37449,0.93126 -0.69568,1.88577 -1.12348,2.79378 -2.83992,6.02777 -6.68747,11.53125 -10.69207,16.82965 -3.53871,4.68198 -8.96094,11.19579 -12.60813,15.64474 -11.52498,13.28419 -22.24561,27.22808 -33.1004,41.05607 -3.74768,4.8647 -7.72568,9.53907 -11.75622,14.16907 -1.54772,1.69141 -2.84798,3.5836 -4.34897,5.31464 -0.84722,0.95851 -1.70365,1.91025 -2.56979,2.85247 -1.24948,1.35752 -2.7310404,2.47366 -4.0750204,3.73404 -0.87121,0.79533 -0.44328,0.40648 -1.28359,1.16677 0,0 7.4954604,4.63477 7.4954604,4.63477 v 0 c 0.82398,-0.77535 0.40252,-0.3792 1.26445,-1.18839 1.36426,-1.28656 2.85547,-2.43112 4.19175,-3.74474 0.85685,-0.95666 1.70249,-1.92522 2.50749,-2.92593 1.45624,-1.76351 2.76309,-3.64268 4.21438,-5.41054 3.73583,-4.83399 7.485,-9.65992 10.96454,-14.68466 10.13948,-14.29182 20.44787,-28.49737 32.13869,-41.58165 7.74656,-8.95526 15.64146,-17.88336 22.33456,-27.67851 1.14426,-1.67459 2.94802,-4.72109 4.10183,-6.64421 0,0 -7.65548,-4.33737 -7.65548,-4.33737 z" />
    <path
       style="fill:#000000;stroke-width:0.264583"
       id="path378"
       d="m 119.47359,227.55156 c -0.0909,0.36127 -0.16194,0.72816 -0.27281,1.08382 -1.38242,4.43485 -3.47145,8.65039 -5.64571,12.7379 -2.9428,5.39814 -7.06791,9.93331 -11.38433,14.24924 -4.630415,4.582 -9.921979,8.38898 -15.322114,11.9978 -3.143581,2.01049 -6.411624,3.81246 -9.791126,5.39234 -1.267552,0.59722 -2.540923,1.20769 -3.889139,1.59986 0,0 7.337007,4.98377 7.337007,4.98377 v 0 c 1.332611,-0.48347 2.61815,-1.08696 3.855071,-1.77959 3.262652,-1.75008 6.462446,-3.61156 9.519402,-5.70515 5.360389,-3.736 10.639529,-7.61042 15.355139,-12.15457 0.75811,-0.74136 1.53406,-1.46492 2.27433,-2.2241 3.58121,-3.6727 6.69277,-7.78437 9.22709,-12.2455 2.3974,-4.4808 4.56131,-9.07841 6.58797,-13.73843 0,0 -7.85078,-4.19739 -7.85078,-4.19739 z" />
    <path
       style="fill:#000000;stroke-width:0.264583"
       id="path380"
       d="m 114.37144,233.76275 c 4.58392,1.13709 9.14033,2.36399 13.75855,3.359 0.83422,0.15502 1.65877,0.37675 2.50266,0.46505 0.96234,0.1007 1.93346,0.0953 2.90104,0.10039 4.45825,0.0233 8.836,-0.77696 13.19046,-1.65319 4.05616,-0.97751 8.09477,-2.19011 11.72184,-4.29076 1.64092,-1.04231 3.18279,-2.23389 4.77417,-3.351 1.56923,-1.07154 3.15294,-2.10718 4.62214,-3.31442 0,0 -7.41562,-4.65256 -7.41562,-4.65256 v 0 c -1.46653,1.1662 -3.01913,2.20645 -4.55564,3.27757 -1.59894,1.08279 -3.19931,2.163 -4.76635,3.29088 -3.41149,2.12948 -7.2666,3.38204 -11.15757,4.31976 -1.06311,0.21517 -2.12014,0.46297 -3.18934,0.64549 -5.05347,0.86263 -10.25554,1.22041 -15.29703,0.0974 -4.77936,-1.03224 -9.47644,-2.35476 -14.18873,-3.64933 0,0 7.09942,5.35573 7.09942,5.35573 z" />
    <path
       style="fill:#000000;stroke-width:0.264583"
       id="path382"
       d="m 98.38442,250.09341 c 3.63169,2.46816 1.430898,1.00047 5.9086,3.8927 3.62541,2.34172 3.93488,2.58849 7.58327,4.79236 4.06993,2.45852 9.48948,5.44858 13.12948,7.50878 0.89238,0.31953 1.7498,0.76239 2.67714,0.95861 3.50703,0.74202 7.27621,-0.23561 10.63364,-1.12514 4.06622,-1.07731 5.74995,-1.72881 9.74573,-3.08945 5.23294,-1.91836 10.24597,-4.36236 15.2048,-6.88994 0,0 -6.93819,-4.53671 -6.93819,-4.53671 v 0 c -4.74925,2.68009 -9.60422,5.18892 -14.75245,7.02848 -3.9448,1.30893 -5.7576,2.0232 -9.8163,2.92234 -3.41815,0.75723 -7.19611,1.43361 -10.67168,0.52956 -0.87475,-0.22754 -1.68451,-0.65596 -2.52676,-0.98394 1.39075,0.84063 2.8558,1.5691 4.17225,2.5219 1.05673,0.76483 -2.26801,-1.28979 -3.38979,-1.95558 -4.36699,-2.59184 -8.60763,-5.39459 -12.77782,-8.2905 0,0 -8.18192,-3.28347 -8.18192,-3.28347 z" />
    <path
       style="fill:#000000;stroke-width:0.264583"
       id="path384"
       d="m 72.812602,275.35531 c 3.724212,2.863 8.09267,5.12543 12.126957,7.3265 0.822119,0.44855 1.699615,0.79216 2.578095,1.11673 2.71136,1.00176 3.535839,1.04999 6.446155,1.6502 9.159061,1.29929 18.424151,1.66471 27.663921,1.82745 5.03587,-0.046 10.1215,-0.23638 15.05347,-1.33199 0.95564,-0.19785 1.88625,-0.49236 2.8221,-0.76462 0,0 -7.28543,-4.97062 -7.28543,-4.97062 v 0 c -0.88877,0.28392 -1.77906,0.56457 -2.68647,0.78457 -4.70011,1.12966 -9.54079,1.50185 -14.36537,1.57575 -9.26911,-0.0645 -18.573411,-0.52091 -27.723634,-2.08142 -2.94041,-0.70821 -3.753739,-0.77917 -6.47437,-1.88685 -0.881928,-0.35907 -3.362576,-1.76636 -2.583773,-1.21846 1.596689,1.12329 3.348363,2.00975 5.055275,2.95719 0.554292,0.30769 -1.073295,-0.67574 -1.59471,-1.03634 -0.268414,-0.18563 -0.515247,-0.40066 -0.772871,-0.601 0,0 -8.259345,-3.34709 -8.259345,-3.34709 z" />
    <path
       style="fill:#000000;stroke-width:0.264583"
       id="path388"
       d="m 164.49343,220.21285 c 1.99051,3.33384 3.32133,6.99916 4.4404,10.70044 1.17056,4.36504 1.79089,8.84673 2.19809,13.33943 0.25485,3.52963 0.45235,7.06203 0.56789,10.59883 0.002,1.96098 0.15563,3.9247 0.0164,5.88431 -0.11194,1.57586 -0.19928,1.85268 -0.46693,3.43171 -0.55164,2.88324 -1.41404,5.68716 -2.76189,8.29651 -1.0085,1.97995 -2.24478,3.8286 -3.54067,5.62964 -0.80382,1.06117 -1.56875,2.15562 -2.51458,3.09748 -3.53304,2.61175 -5.00098,-1.1004 6.707,5.56728 0.45382,-0.20886 0.91864,-0.39534 1.36147,-0.62664 1.39437,-0.72826 2.93354,-1.69143 4.23552,-2.54349 1.6624,-1.08794 3.14341,-2.11161 4.6919,-3.36097 0.76802,-0.61966 1.49626,-1.28707 2.2444,-1.93059 4.37242,-3.80942 7.50567,-8.68458 10.54637,-13.5572 2.8009,-4.60768 5.33771,-9.35893 7.5474,-14.27616 1.51994,-3.5264 2.8177,-7.13688 4.08688,-10.75801 0.9084,-2.56678 1.63223,-5.191 2.19448,-7.85396 0.40627,-1.62823 0.66612,-3.27106 0.78414,-4.94315 0.0866,-1.27125 0.19682,-2.53906 0.34081,-3.8051 0,0 -7.76508,-4.06681 -7.76508,-4.06681 v 0 c -0.14174,1.27142 -0.30198,2.5404 -0.41634,3.81476 -0.0901,1.6435 -0.30661,3.27013 -0.65907,4.87954 -0.47628,2.65151 -1.17215,5.2541 -2.04556,7.80304 -0.34601,1.06035 -0.66312,2.13018 -1.02307,3.18588 -0.87224,2.55816 -1.91417,5.05859 -2.89465,7.57575 -2.15838,4.89868 -4.45551,9.73558 -7.35191,14.25224 -3.00389,4.79338 -6.14923,9.5548 -10.41906,13.33649 -0.74101,0.62695 -1.46218,1.27812 -2.22302,1.88084 -3.15547,2.49973 -6.64263,4.76933 -10.49072,6.01887 4.96963,3.95822 4.95414,6.99942 8.14813,4.03088 0.90496,-1.02741 1.69217,-2.14715 2.47806,-3.26663 1.26946,-1.8696 2.54537,-3.74443 3.57562,-5.75961 1.3072,-2.72624 2.17841,-5.61432 2.74963,-8.58358 0.27642,-1.44952 0.4261,-2.04912 0.56796,-3.50449 0.1927,-1.977 0.0589,-3.96767 0.0177,-5.94797 -0.1288,-3.57264 -0.39936,-7.13541 -0.66247,-10.70019 -0.41377,-4.55666 -1.03569,-9.09613 -2.20844,-13.52779 -1.04067,-3.66742 -2.25858,-7.29722 -3.97744,-10.71012 0,0 -8.07934,-3.60146 -8.07934,-3.60146 z" />
  </g>
</svg>
