<?xml version="1.0" encoding="UTF-8" standalone="no"?>
<!-- Created with Inkscape (http://www.inkscape.org/) -->

<svg
   width="210mm"
   height="297mm"
   viewBox="0 0 210 297"
   version="1.1"
   id="svg5"
   inkscape:version="1.2.1 (9c6d41e410, 2022-07-14)"
   sodipodi:docname="sditdev.svg"
   xmlns:inkscape="http://www.inkscape.org/namespaces/inkscape"
   xmlns:sodipodi="http://sodipodi.sourceforge.net/DTD/sodipodi-0.dtd"
   xmlns="http://www.w3.org/2000/svg"
   xmlns:svg="http://www.w3.org/2000/svg">
  <sodipodi:namedview
     id="namedview7"
     pagecolor="#ffffff"
     bordercolor="#999999"
     borderopacity="1"
     inkscape:showpageshadow="0"
     inkscape:pageopacity="0"
     inkscape:pagecheckerboard="0"
     inkscape:deskcolor="#d1d1d1"
     inkscape:document-units="mm"
     showgrid="false"
     inkscape:zoom="0.74564394"
     inkscape:cx="396.97231"
     inkscape:cy="561.9304"
     inkscape:window-width="1920"
     inkscape:window-height="1017"
     inkscape:window-x="-8"
     inkscape:window-y="-8"
     inkscape:window-maximized="1"
     inkscape:current-layer="layer1" />
  <defs
     id="defs2">
    <inkscape:path-effect
       effect="powerstroke"
       id="path-effect195"
       is_visible="true"
       lpeversion="1"
       offset_points="0.2981661,5.3225805"
       not_jump="true"
       sort_points="true"
       interpolator_type="CentripetalCatmullRom"
       interpolator_beta="0.75"
       start_linecap_type="round"
       linejoin_type="spiro"
       miter_limit="4"
       scale_width="1"
       end_linecap_type="round" />
    <inkscape:path-effect
       effect="simplify"
       id="path-effect193"
       is_visible="true"
       lpeversion="1"
       steps="1"
       threshold="0.0047745358"
       smooth_angles="0"
       helper_size="0"
       simplify_individual_paths="false"
       simplify_just_coalesce="false"
       step="1" />
    <inkscape:path-effect
       effect="powerstroke"
       id="path-effect188"
       is_visible="true"
       lpeversion="1"
       offset_points="0.11931721,5.3225805"
       not_jump="true"
       sort_points="true"
       interpolator_type="CentripetalCatmullRom"
       interpolator_beta="0.75"
       start_linecap_type="round"
       linejoin_type="spiro"
       miter_limit="4"
       scale_width="1"
       end_linecap_type="round" />
    <inkscape:path-effect
       effect="simplify"
       id="path-effect186"
       is_visible="true"
       lpeversion="1"
       steps="1"
       threshold="0.0047745358"
       smooth_angles="0"
       helper_size="0"
       simplify_individual_paths="false"
       simplify_just_coalesce="false"
       step="1" />
    <inkscape:path-effect
       effect="powerstroke"
       id="path-effect181"
       is_visible="true"
       lpeversion="1"
       offset_points="0.5,5.3225805"
       not_jump="true"
       sort_points="true"
       interpolator_type="CentripetalCatmullRom"
       interpolator_beta="0.75"
       start_linecap_type="round"
       linejoin_type="spiro"
       miter_limit="4"
       scale_width="1"
       end_linecap_type="round" />
    <inkscape:path-effect
       effect="simplify"
       id="path-effect179"
       is_visible="true"
       lpeversion="1"
       steps="1"
       threshold="0.0047745358"
       smooth_angles="0"
       helper_size="0"
       simplify_individual_paths="false"
       simplify_just_coalesce="false"
       step="1" />
  </defs>
  <g
     inkscape:label="Layer 1"
     inkscape:groupmode="layer"
     id="layer1">
    <path
       style="fill:#000000;stroke-width:0.264583"
       id="path316"
       d="m 57.007272,11.879862 c -3.054879,8.142277 -6.597684,16.092454 -9.90592,24.132998 -1.098278,2.669323 -2.164133,5.35187 -3.246199,8.027805 -2.463782,6.28831 -4.962216,12.563343 -7.395848,18.863461 -0.466886,1.208661 -0.93113,2.418392 -1.384022,3.632364 -0.308036,0.825682 -0.696063,1.628722 -0.898684,2.486379 -0.102026,0.431866 -0.0021,0.887505 -0.0032,1.331259 1.783017,0.592691 3.470222,1.798733 5.349052,1.778072 1.921955,-0.02114 3.632047,-1.259261 5.445313,-1.896772 2.585612,-0.909058 5.174655,-1.808694 7.751281,-2.742917 7.638952,-2.769703 15.231586,-5.671253 22.847726,-8.503033 -0.517965,-5.930482 6.478926,1.05538 7.446586,-1.269257 0.32987,-0.792448 -1.768514,-0.942247 -2.520354,-0.528092 -0.72934,0.401762 -0.423617,1.625542 -0.810472,2.362898 -1.317461,2.511121 -3.850481,5.538912 -5.512953,7.685553 -8.180864,9.871327 -16.497126,19.631009 -24.84818,29.358757 -1.04735,1.209013 -2.094701,2.418024 -3.142049,3.627033 0,0 3.016137,1.81463 3.016137,1.81463 v 0 c 1.01955,-1.22578 2.039101,-2.451559 3.058654,-3.67734 8.240427,-9.83017 16.565578,-19.58849 24.890124,-29.347321 1.552377,-1.920703 4.488193,-5.355306 5.802262,-7.647646 0.466146,-0.813173 1.479958,-1.769869 1.056312,-2.605971 -2.656885,-5.243571 -7.305058,-2.896433 -11.176682,-1.615837 -7.541355,2.944453 -15.07648,5.92459 -22.730632,8.567965 -2.635202,0.910071 -5.285782,1.776783 -7.949671,2.599108 -1.890408,0.583554 -4.192767,0.348678 -5.710568,1.617715 -0.630552,0.527206 0.798912,1.43663 1.198367,2.154947 -0.06207,-0.420563 -0.252402,-0.841756 -0.186195,-1.261684 0.137996,-0.875295 0.510084,-1.697398 0.7855,-2.539614 0.404693,-1.237543 0.824463,-2.4702 1.254646,-3.699116 2.235703,-6.386803 4.64349,-12.712292 7.101821,-19.016133 1.098127,-2.664941 2.170039,-5.340836 3.29438,-7.994824 3.3825,-7.984337 7.005553,-15.866309 10.575841,-23.767506 0,0 -3.452347,-1.927881 -3.452347,-1.927881 z" />
    <path
       style="fill:#000000;stroke-width:0.264583"
       id="path318"
       d="m 134.32656,23.270567 c -1.93935,4.717005 -3.60556,9.540639 -5.18923,14.386687 -3.03405,10.070631 -7.34501,19.69794 -11.73384,29.235357 -5.86308,11.933788 -11.64894,23.904014 -17.415187,35.884739 0,0 3.082507,1.7443 3.082507,1.7443 v 0 c 5.49294,-12.117081 11.1707,-24.145441 17.18909,-36.012387 1.02683,-2.156391 2.08557,-4.297873 3.0805,-6.469171 0.86478,-1.887262 1.67141,-3.800644 2.49791,-5.704983 2.40418,-5.539515 4.77258,-11.112526 6.53769,-16.895855 1.59287,-4.811411 3.16914,-9.661429 5.38912,-14.227648 0,0 -3.43856,-1.941039 -3.43856,-1.941039 z" />
    <path
       style="fill:#000000;stroke-width:0.264583"
       id="path320"
       d="m 138.4055,27.062538 c 4.71354,-0.06095 9.42895,-0.134234 14.14077,0.02434 2.72454,0.174786 5.29589,0.901181 7.69314,2.210382 0.26851,0.146643 -1.0494,-0.527309 -0.87548,-0.275606 0.51472,0.74494 1.31616,1.24387 1.97425,1.865805 0.48433,0.809728 0.96865,1.619456 1.45298,2.429184 0.17247,1.001639 0.45841,1.990254 0.51741,3.004918 0.25754,4.429527 -1.61708,8.610071 -3.97327,12.238088 -0.6579,1.013023 -1.40538,1.96497 -2.10807,2.947455 -3.92457,4.869871 -8.15687,9.501598 -12.60739,13.89612 -2.82939,2.793781 -5.61804,5.317501 -8.54274,8.014433 -7.1076,6.345153 -14.11709,12.798277 -21.17048,19.203212 -2.70772,2.344553 -5.20414,4.902851 -7.55487,7.600151 -0.97975,1.09675 -1.87618,2.35317 -3.19881,3.05768 -0.82134,0.348 -1.56669,0.14736 -2.33942,-0.20886 4.96819,2.95787 3.38298,2.31594 2.51998,1.04067 0,0 -3.61663,-1.59664 -3.61663,-1.59664 v 0 c 1.01657,1.78846 1.15651,1.53967 4.20916,3.002 0.87372,0.29414 1.6966,0.36249 2.5429,-0.0839 1.30125,-0.80763 2.21896,-2.06003 3.19864,-3.21222 2.30773,-2.697325 4.74929,-5.268897 7.37701,-7.659889 6.89104,-6.541431 13.80622,-13.056965 20.92337,-19.353779 2.86813,-2.624182 5.81925,-5.282141 8.60624,-7.995385 4.50225,-4.383106 8.7932,-9.000707 12.7829,-13.854853 1.70047,-2.356229 2.58621,-3.388352 3.90259,-5.963711 1.50158,-2.937695 2.48631,-6.112701 2.36177,-9.446652 -0.0392,-1.048834 -0.2918,-2.078749 -0.43769,-3.118122 -0.46682,-0.839994 -0.82166,-1.752838 -1.40044,-2.519979 -0.55144,-0.73088 -1.21059,-1.39664 -1.95583,-1.9285 -3.20964,-2.290622 -6.68388,-4.43313 -10.61031,-5.1762 -0.88247,-0.167006 -1.78408,-0.208908 -2.67612,-0.313362 -4.77466,-0.132664 -9.55126,-0.05154 -14.32687,-0.145428 0,0 3.19131,2.318626 3.19131,2.318626 z" />
    <path
       style="fill:#000000;stroke-width:0.264583"
       id="path322"
       d="m 63.329936,109.73734 c -4.90092,10.48142 -11.429236,20.07255 -17.821516,29.6777 -6.064594,8.95897 -12.11875,17.92683 -17.996125,27.01017 0,0 3.090275,1.79919 3.090275,1.79919 v 0 c 5.609474,-9.23988 11.542533,-18.27839 17.59367,-27.23432 6.414664,-9.59802 12.982194,-19.12467 18.54513,-29.25374 0,0 -3.411434,-1.999 -3.411434,-1.999 z" />
    <path
       style="fill:#000000;stroke-width:0.264583"
       id="path324"
       d="m 122.93398,117.38906 c -3.9002,8.58011 -8.87162,16.63532 -13.71478,24.70577 -3.49202,5.52618 -6.82652,11.17019 -10.680936,16.45714 -1.753857,2.48027 -3.222437,5.13934 -4.698598,7.78878 0,0 3.319413,1.90719 3.319413,1.90719 v 0 c 1.439867,-2.6551 2.915251,-5.29327 4.692401,-7.74266 3.69247,-5.40445 6.82494,-11.16972 10.29828,-16.71273 4.81699,-8.10645 9.76793,-16.14699 14.21338,-24.46514 0,0 -3.42916,-1.93835 -3.42916,-1.93835 z" />
    <path
       style="fill:#000000;stroke-width:0.264583"
       id="path326"
       d="m 87.890473,137.10433 c 0.68807,-0.46181 1.353352,-0.95952 2.064208,-1.38542 9.047115,-5.42042 18.945239,-9.14241 28.779979,-12.83862 8.00722,-3.07803 16.36501,-4.96769 24.74628,-6.67295 0,0 -2.84568,-1.97862 -2.84568,-1.97862 v 0 c -8.32283,1.81198 -16.63363,3.75645 -24.60038,6.83474 -10.72993,4.03855 -21.572779,8.05272 -31.449973,13.95445 0,0 3.305566,2.08642 3.305566,2.08642 z" />
    <path
       style="fill:#000000;stroke-width:0.264583"
       id="path334"
       d="m 91.990139,192.53838 c -3.109674,10.68912 -6.783713,21.20981 -10.75685,31.606 -3.172634,7.77634 -6.785403,15.36818 -10.759302,22.76545 -0.618702,1.3289 -1.482825,2.53222 -2.13129,3.84461 -0.496962,1.00577 -0.847863,2.09075 -1.248317,3.13661 -0.150064,0.34235 -0.300128,0.6847 -0.450192,1.02705 0,0 3.387204,1.90612 3.387204,1.90612 v 0 c 0.152641,-0.34778 0.305282,-0.69557 0.457922,-1.04336 0.398704,-1.03305 0.756952,-2.08833 1.231321,-3.09029 0.114742,-0.24237 1.119,-2.15664 1.150541,-2.21828 0.289419,-0.56568 0.571732,-1.13496 0.857602,-1.70244 3.781628,-7.52161 7.313342,-15.17139 10.46069,-22.98148 0.725782,-1.92346 1.472798,-3.83904 2.177344,-5.77038 3.102967,-8.50605 5.915162,-17.11664 9.028446,-25.61919 0,0 -3.405119,-1.86042 -3.405119,-1.86042 z" />
    <path
       style="fill:#000000;stroke-width:0.264583"
       id="path336"
       d="m 96.767202,194.19532 c 3.557598,0.0446 7.060298,-0.55536 10.531218,-1.26843 6.70263,-1.60334 13.23203,-3.80921 19.72091,-6.10938 3.52542,-1.17479 6.87956,-2.75894 10.21886,-4.36992 3.72318,-1.68482 7.41563,-3.43297 11.11981,-5.15995 0.613,-0.29398 1.22601,-0.58795 1.83902,-0.88193 0,0 -3.1687,-2.09074 -3.1687,-2.09074 v 0 c -0.60673,0.2964 -1.21347,0.59279 -1.8202,0.88918 -3.70822,1.75702 -7.44195,3.45093 -11.19014,5.11911 -3.29195,1.60553 -6.59058,3.2068 -10.04751,4.43615 -6.47332,2.36437 -13.01384,4.55479 -19.76006,6.01557 -3.51003,0.68038 -7.054014,1.26447 -10.644847,1.09421 0,0 3.201639,2.32613 3.201639,2.32613 z" />
    <path
       style="fill:#000000;stroke-width:0.264583"
       id="path338"
       d="m 94.471597,192.11205 c -1.88219,-0.27425 -3.793283,-0.18787 -5.660353,0.14779 -0.09819,0.0614 -0.221387,0.0945 -0.294568,0.18431 -0.10794,0.13241 -0.194726,0.5017 0.01344,0.62711 1.217046,0.73318 2.501363,1.34842 3.752045,2.02262 0,0 -3.139471,-2.42308 -3.139471,-2.42308 v 0 c 1.032854,0.60922 2.104905,1.15639 3.098561,1.82765 0.04055,0.0274 -0.792122,0.19312 -0.201078,0.0194 1.844736,-0.34256 3.738565,-0.374 5.586696,-0.0255 0,0 -3.155275,-2.3803 -3.155275,-2.3803 z" />
    <path
       style="fill:#000000;stroke-width:0.264583"
       id="path340"
       d="m 81.455336,222.99854 c 5.038317,-0.007 10.080228,0.19785 15.11831,0.0814 1.386072,-0.032 2.770518,-0.11455 4.155774,-0.17182 6.67079,-0.49056 13.34021,-1.18213 19.91712,-2.42905 4.30913,-0.81696 6.46668,-1.41287 10.71035,-2.46354 8.65887,-2.27959 16.9372,-5.77635 24.92172,-9.78948 0.79828,-0.41641 1.59656,-0.83282 2.39484,-1.24922 0,0 -3.1225,-2.04246 -3.1225,-2.04246 v 0 c -0.77917,0.42621 -1.55835,0.85241 -2.33753,1.27862 -7.88197,4.08926 -16.09341,7.57953 -24.69965,9.84047 -4.28826,1.06092 -6.33268,1.63314 -10.69214,2.44245 -6.60409,1.22601 -13.30256,1.87351 -19.999024,2.31748 -1.387261,0.0504 -2.773852,0.12525 -4.161787,0.15127 -5.126403,0.0961 -10.265908,-0.0695 -15.384407,-0.32991 0,0 3.178924,2.36381 3.178924,2.36381 z" />
    <path
       style="fill:#000000;stroke-width:0.264583"
       id="path342"
       d="m 68.111115,251.89154 c 6.033056,1.39524 12.166931,2.60391 18.36108,2.98359 1.558833,0.0955 3.122518,0.079 4.683774,0.11852 7.636607,-0.1942 15.345341,-1.12544 22.646481,-3.46387 1.44308,-0.46219 2.84643,-1.04031 4.26965,-1.56046 3.11323,-1.18265 6.09454,-2.65164 9.03566,-4.20196 0,0 -3.13084,-2.04572 -3.13084,-2.04572 v 0 c -2.86631,1.58875 -5.77815,3.08858 -8.84471,4.26495 -1.41434,0.51455 -2.80818,1.08935 -4.243,1.54367 -7.25974,2.29867 -14.998038,3.20786 -22.583973,3.37999 -1.558383,-0.0479 -3.119425,-0.0409 -4.675148,-0.1437 -6.255872,-0.41347 -12.593259,-1.64363 -18.637641,-3.28628 0,0 3.118667,2.41127 3.118667,2.41127 z" />
    <path
       style="fill:#000000;stroke-width:0.264583"
       id="path346"
       d="m 161.93767,171.52018 c 0.35539,0.89771 0.70195,1.79898 1.06617,2.69315 1.84348,4.52575 2.556,5.97799 4.35782,10.91033 2.1847,5.98045 3.57987,10.28362 5.23733,16.48986 0.79255,2.96769 1.45108,5.96956 2.17662,8.95435 0.50584,3.21471 1.15517,6.4101 1.51752,9.64413 0.98809,8.81887 0.97261,17.81511 -0.67996,26.55534 -1.11343,5.88881 -2.25088,8.68226 -4.11454,14.21123 -1.78416,4.37237 -2.00845,5.23327 -4.03907,9.16755 -0.49468,0.95842 -1.0603,1.87854 -1.58575,2.82045 -0.30792,0.552 -0.65577,1.08445 -0.91433,1.66122 -0.09,0.20079 -0.32234,0.5594 -0.12131,0.64891 1.47351,0.6562 3.09511,0.90967 4.64267,1.36449 0.73744,-0.55528 1.50018,-1.07847 2.21233,-1.66585 1.73793,-1.4334 4.23431,-3.78814 5.78283,-5.33953 2.08539,-2.08925 4.84532,-5.04306 6.74353,-7.27828 1.12588,-1.32577 2.18398,-2.70763 3.27597,-4.06144 3.06857,-4.04985 5.77722,-8.3996 7.60885,-13.16029 1.19338,-3.10178 2.32317,-7.46049 3.00232,-10.69387 0.39322,-1.87207 0.67071,-3.76658 1.00607,-5.64986 1.85722,-12.63289 1.92492,-25.42327 2.09811,-38.16229 0.0277,-2.09638 0.0554,-4.19276 0.0831,-6.28914 0,0 -2.9999,-1.53163 -2.9999,-1.53163 v 0 c -0.007,2.10636 -0.0137,4.21271 -0.0205,6.31907 -0.1758,12.7049 -0.37368,25.45521 -2.1856,38.05494 -0.33481,1.87542 -0.61057,3.76234 -1.00441,5.62625 -0.69557,3.29186 -1.79209,7.45844 -3.01666,10.61095 -1.8353,4.72476 -4.51077,9.06003 -7.55581,13.08997 -1.09213,1.34659 -2.14855,2.72294 -3.27639,4.03976 -2.05102,2.39468 -4.54062,5.00255 -6.80305,7.20862 -1.5887,1.54913 -4.06861,3.83709 -5.88012,5.21859 -0.73038,0.557 -1.52551,1.02354 -2.28826,1.53532 0.69238,0.85572 1.29785,1.78977 2.07715,2.5672 0.13445,0.13414 -0.12765,-0.38428 -0.0705,-0.56539 0.18991,-0.60182 0.51156,-1.15424 0.79161,-1.71976 0.48212,-0.97362 1.02618,-1.91617 1.49434,-2.89653 1.95244,-4.08863 2.10746,-4.79605 3.84074,-9.32479 1.7242,-5.36407 2.96222,-8.67686 4.01087,-14.33555 2.23144,-12.0412 1.28682,-24.36372 -0.85813,-36.33839 -0.71764,-2.98591 -1.37586,-5.98674 -2.15293,-8.95773 -1.61634,-6.17974 -2.94889,-10.43855 -5.01931,-16.41611 -1.86862,-5.39497 -2.19929,-5.88886 -4.00055,-10.74337 -0.31296,-0.84344 -0.59885,-1.69668 -0.89827,-2.54502 0,0 -3.54061,-1.71686 -3.54061,-1.71686 z" />
    <path
       style="fill:#000000;stroke-width:0.264583"
       id="path318-2"
       d="m 35.790583,185.5014 c -1.93935,4.717 -3.60556,9.54064 -5.18923,14.38668 -3.03405,10.07063 -7.34501,19.69794 -11.73384,29.23536 -5.86308,11.93379 -11.6489398,23.90402 -17.4151868,35.88474 0,0 3.082507,1.7443 3.082507,1.7443 v 0 C 10.027773,254.6354 15.705533,242.60704 21.723923,230.74009 c 1.02683,-2.15639 2.08557,-4.29787 3.0805,-6.46917 0.86478,-1.88726 1.67141,-3.80064 2.49791,-5.70498 2.40418,-5.53952 4.77258,-11.11253 6.53769,-16.89586 1.59287,-4.81141 3.16914,-9.66143 5.38912,-14.22764 0,0 -3.43856,-1.94104 -3.43856,-1.94104 z" />
    <path
       style="fill:#000000;stroke-width:0.264583"
       id="path320-3"
       d="m 39.869523,189.29337 c 4.71354,-0.061 9.42895,-0.13424 14.14077,0.0243 2.72454,0.17478 5.29589,0.90118 7.69314,2.21038 0.26851,0.14664 -1.0494,-0.52731 -0.87548,-0.27561 0.51472,0.74494 1.31616,1.24387 1.97425,1.86581 0.48433,0.80973 0.96865,1.61945 1.45298,2.42918 0.17247,1.00164 0.45841,1.99026 0.51741,3.00492 0.25754,4.42953 -1.61708,8.61007 -3.97327,12.23809 -0.6579,1.01302 -1.40538,1.96497 -2.10807,2.94745 -3.92457,4.86987 -8.15687,9.5016 -12.60739,13.89612 -2.82939,2.79378 -5.61804,5.3175 -8.54274,8.01444 -7.1076,6.34515 -14.11709,12.79827 -21.17048,19.20321 -2.70772,2.34455 -5.20414,4.90285 -7.5548698,7.60015 -0.97975,1.09675 -1.87618,2.35317 -3.19881,3.05768 -0.82134,0.348 -1.56669,0.14736 -2.33942,-0.20886 4.96819,2.95787 3.38298,2.31594 2.51998,1.04067 0,0 -3.61663,-1.59664 -3.61663,-1.59664 v 0 c 1.01657,1.78846 1.15651,1.53967 4.20916,3.002 0.87372,0.29414 1.6966,0.36249 2.5429,-0.0839 1.3012498,-0.80763 2.2189598,-2.06003 3.1986398,-3.21222 2.30773,-2.69733 4.74929,-5.2689 7.37701,-7.65989 6.89104,-6.54143 13.80622,-13.05696 20.92337,-19.35378 2.86813,-2.62418 5.81925,-5.28214 8.60624,-7.99538 4.50225,-4.38311 8.7932,-9.00071 12.7829,-13.85486 1.70047,-2.35623 2.58621,-3.38835 3.90259,-5.96371 1.50158,-2.93769 2.48631,-6.1127 2.36177,-9.44665 -0.0392,-1.04883 -0.2918,-2.07875 -0.43769,-3.11812 -0.46682,-0.84 -0.82166,-1.75284 -1.40044,-2.51998 -0.55144,-0.73088 -1.21059,-1.39664 -1.95583,-1.9285 -3.20964,-2.29062 -6.68388,-4.43313 -10.61031,-5.1762 -0.88247,-0.16701 -1.78408,-0.20891 -2.67612,-0.31336 -4.77466,-0.13267 -9.55126,-0.0515 -14.32687,-0.14543 0,0 3.19131,2.31863 3.19131,2.31863 z" />
  </g>
</svg>
